<?xml version="1.0" standalone="no"?>
<!DOCTYPE svg PUBLIC "-//W3C//DTD SVG 20010904//EN"
 "http://www.w3.org/TR/2001/REC-SVG-20010904/DTD/svg10.dtd">
<svg version="1.0" xmlns="http://www.w3.org/2000/svg"
 width="200.000000pt" height="200.000000pt" viewBox="0 0 200.000000 200.000000"
 preserveAspectRatio="xMidYMid meet">
<metadata>
Created by potrace 1.14, written by Peter Selinger 2001-2017
</metadata>
<g transform="translate(0.000000,200.000000) scale(0.100000,-0.100000)"
fill="#000000" stroke="none">
<path d="M1160 1445 c0 -30 -3 -55 -6 -55 -4 0 -37 23 -74 50 -37 28 -74 50
-81 50 -8 0 -64 -37 -124 -83 -61 -45 -197 -145 -303 -221 -176 -128 -211
-161 -171 -161 9 0 13 -9 11 -23 -3 -19 1 -22 27 -22 l31 0 0 -88 0 -88 -85 1
c-47 0 -85 -2 -86 -5 0 -3 -2 -20 -4 -37 l-3 -33 127 0 128 0 -1 28 c-1 25 2
27 48 33 40 4 54 12 78 39 15 19 28 40 28 47 0 7 3 13 8 13 4 0 6 -36 5 -80
l-3 -80 38 0 c36 0 39 2 38 28 -1 25 2 27 42 30 41 3 42 2 42 -27 0 -29 3 -31
35 -31 19 0 36 3 36 8 6 33 3 193 -3 218 -4 17 -19 40 -31 52 -72 68 -166 31
-199 -78 -3 -8 -8 2 -12 22 -7 39 -53 87 -84 89 -117 6 -142 4 -142 -13 0 -22
-15 -31 -28 -15 -17 21 4 53 60 92 29 20 69 48 89 63 20 15 67 49 105 77 38
27 120 87 183 134 l114 84 33 -18 c18 -10 41 -25 51 -34 10 -9 29 -24 43 -33
28 -19 279 -202 295 -215 6 -5 40 -31 78 -58 54 -39 67 -54 67 -76 0 -22 -4
-26 -19 -22 -12 3 -17 11 -14 19 5 14 0 16 -37 16 -11 0 -24 0 -29 -1 -5 0 -8
-70 -7 -153 l1 -153 121 -3 c132 -3 143 2 125 52 -9 22 -14 23 -90 21 -62 -1
-81 1 -82 12 -1 7 -1 36 -1 63 0 98 0 98 30 102 15 2 28 9 28 16 1 6 2 20 3
30 1 13 3 14 10 3 6 -10 10 -10 16 -1 4 6 5 13 4 14 -8 6 -139 102 -161 118
-12 9 -50 37 -83 62 l-60 45 0 113 0 113 -78 3 -77 3 0 -56z m131 29 c4 -2 4
-155 0 -187 -1 -4 -11 2 -23 13 -13 12 -38 30 -55 41 -32 20 -35 27 -35 94 0
42 1 44 30 48 25 3 69 -1 83 -9z m-661 -558 c0 -31 -19 -46 -56 -46 -30 0 -31
1 -30 42 1 31 6 43 21 48 27 9 65 -17 65 -44z m238 -10 c3 -29 0 -36 -15 -37
-58 -4 -76 10 -66 51 15 64 75 54 81 -14z"/>
<path d="M983 1043 c-10 -4 -13 -44 -13 -159 l0 -154 38 0 38 0 -1 75 c-1 42
2 72 6 68 4 -5 23 -37 42 -73 34 -63 36 -65 73 -65 l38 0 1 155 0 154 -35 1
-35 0 -3 -80 -3 -79 -40 74 c-23 41 -42 76 -44 78 -6 6 -49 9 -62 5z"/>
<path d="M1246 1040 c-9 -4 -13 -42 -13 -157 l0 -153 103 0 102 0 -2 38 -2 37
-62 3 c-53 3 -62 6 -62 22 0 16 7 19 40 17 26 -2 40 2 41 10 6 63 5 68 -26 69
-53 2 -57 4 -53 21 3 14 14 18 63 18 58 0 59 0 61 30 1 17 -1 35 -5 40 -6 10
-161 14 -185 5z"/>
<path d="M668 651 c-1 -26 -2 -56 0 -65 5 -25 22 -19 22 9 0 14 3 25 8 26 4 0
17 2 30 5 12 2 23 -1 23 -6 1 -6 3 -14 4 -20 1 -5 3 -15 4 -21 0 -5 5 -7 11
-4 13 8 8 117 -6 122 -7 2 -10 -6 -9 -22 2 -14 -1 -25 -6 -26 -47 -6 -54 -3
-57 24 -5 44 -20 31 -24 -22z"/>
<path d="M833 685 c-24 -17 -34 -56 -19 -77 30 -40 86 -45 113 -9 44 58 -32
129 -94 86z m71 -21 c20 -20 20 -33 -1 -56 -20 -22 -31 -23 -55 -1 -23 20 -23
49 0 62 24 15 38 13 56 -5z"/>
<path d="M969 673 c-2 -47 2 -67 17 -84 18 -20 64 -16 80 6 14 19 13 97 -2
102 -6 2 -10 -10 -9 -29 2 -47 -4 -65 -25 -71 -27 -7 -40 12 -40 60 0 47 -19
61 -21 16z"/>
<path d="M1120 685 c-17 -21 -5 -44 30 -56 16 -6 30 -15 30 -20 0 -15 -30 -23
-43 -10 -15 15 -27 14 -27 -4 0 -16 3 -17 35 -18 42 0 53 4 58 22 5 22 -21 51
-46 51 -9 0 -17 7 -17 16 0 13 7 15 30 11 31 -7 42 6 14 17 -26 10 -51 7 -64
-9z"/>
<path d="M1237 693 c-3 -7 -2 -92 2 -113 2 -8 79 -6 87 3 7 7 -9 10 -48 10
-11 0 -18 7 -18 19 0 12 6 19 18 17 30 -3 43 1 38 10 -4 5 -14 8 -24 6 -20 -3
-44 14 -36 26 3 5 21 9 40 9 19 0 34 5 34 10 0 11 -87 14 -93 3z"/>
</g>
</svg>
